<svg width="1460" height="543" viewBox="0 0 1460 543" fill="none" xmlns="http://www.w3.org/2000/svg">
<g opacity="0.5">
<g opacity="0.5">
<path opacity="0.25" d="M1087.98 94.9961C941.435 94.2811 799.183 170.79 721.981 307.72C645.137 444.292 653.357 605.891 729.487 731.023C876.028 731.738 1018.28 655.229 1095.48 518.299C1172.68 381.369 1164.46 220.128 1087.98 94.9961Z" fill="url(#paint0_linear)"/>
<path opacity="0.25" d="M972.173 42.4415C827.777 67.4678 700.894 167.573 648.711 315.229C596.528 463.242 632.628 620.908 729.487 730.666C873.884 705.997 1000.77 605.892 1052.95 457.879C1105.13 309.866 1069.03 152.2 972.173 42.4415Z" fill="url(#paint1_linear)"/>
<path opacity="0.25" d="M848.864 10.6214C710.902 59.959 603.319 180.8 577.585 335.606C551.851 490.412 615.114 639.497 729.487 730.665C867.45 681.327 975.032 560.486 1000.77 405.68C1026.5 251.232 963.595 102.146 848.864 10.6214Z" fill="url(#paint2_linear)"/>
<path opacity="0.25" d="M721.981 0.968994C594.741 73.5454 509.676 211.19 511.463 368.141C512.893 525.092 600.817 660.592 729.487 730.666C856.727 658.089 941.793 520.444 940.005 363.493C938.576 206.9 850.651 71.0428 721.981 0.968994Z" fill="url(#paint3_linear)"/>
<path opacity="0.25" d="M595.456 13.4825C482.869 107.152 422.823 257.311 451.774 411.401C480.725 565.492 590.809 684.188 729.487 730.666C842.073 636.996 902.119 486.838 873.168 332.747C844.575 178.299 734.491 59.96 595.456 13.4825Z" fill="url(#paint4_linear)"/>
<path opacity="0.25" d="M472.862 47.4469C378.147 159.35 345.265 317.731 400.307 464.314C455.349 611.255 584.376 708.5 729.487 730.309C824.203 618.405 857.085 460.024 802.043 313.441C747.001 166.858 617.973 69.2556 472.862 47.4469Z" fill="url(#paint5_linear)"/>
<path opacity="0.25" d="M358.131 102.504C284.504 229.066 279.5 390.664 359.204 525.807C438.908 660.949 582.946 734.598 729.487 730.665C803.115 604.103 808.119 442.505 728.415 307.363C648.711 172.578 504.672 98.9288 358.131 102.504Z" fill="url(#paint6_linear)"/>
<path opacity="0.25" d="M254.838 176.511C204.085 313.798 227.317 473.967 329.538 593.021C431.759 712.075 586.163 759.625 729.844 730.666C780.597 593.378 757.365 433.21 655.144 314.156C552.923 195.102 398.519 147.552 254.838 176.511Z" fill="url(#paint7_linear)"/>
<path opacity="0.25" d="M165.841 267.32C139.75 411.4 190.503 565.133 311.667 664.524C432.831 764.272 593.311 783.935 729.844 730.665C755.936 586.585 705.183 432.851 584.018 333.461C462.854 233.713 302.017 214.05 165.841 267.32Z" fill="url(#paint8_linear)"/>
<path opacity="0.25" d="M94.0006 372.432C93.2857 519.015 169.773 661.308 306.663 738.532C443.196 815.756 604.749 807.175 729.845 731.024C730.559 584.441 654.072 442.148 517.182 364.924C380.649 287.7 219.096 295.923 94.0006 372.432Z" fill="url(#paint9_linear)"/>
<path opacity="0.25" d="M41.4597 488.268C66.1215 632.706 166.198 759.625 314.169 811.823C462.139 864.02 619.76 827.911 729.487 730.666C704.825 586.228 604.748 459.309 456.778 407.111C308.807 355.271 151.187 391.38 41.4597 488.268Z" fill="url(#paint10_linear)"/>
<path opacity="0.25" d="M9.65039 611.254C59.3313 749.256 179.781 856.87 334.542 882.611C489.303 908.353 638.346 845.072 729.487 730.665C679.807 592.663 559.357 485.05 404.596 459.308C249.834 433.924 101.149 496.848 9.65039 611.254Z" fill="url(#paint11_linear)"/>
<path opacity="0.25" d="M0 738.173C72.5556 865.45 210.161 950.54 367.067 948.752C523.973 947.322 659.791 859.372 729.845 730.666C657.289 603.389 519.684 518.299 362.778 520.087C205.872 521.517 70.0537 609.467 0 738.173Z" fill="url(#paint12_linear)"/>
<path opacity="0.25" d="M1459.33 723.158C1386.78 595.881 1249.17 510.791 1092.26 512.579C935.359 514.367 799.541 602.316 729.487 730.666C802.043 857.942 939.648 943.032 1096.55 941.244C1253.46 939.814 1389.28 851.865 1459.33 723.158Z" fill="url(#paint13_linear)"/>
<path opacity="0.25" d="M1446.82 596.596C1353.18 483.977 1203.06 423.914 1049.02 452.873C894.971 481.832 776.309 591.948 729.844 730.666C823.488 843.284 973.602 903.347 1128.01 874.388C1281.7 845.429 1400.36 735.313 1446.82 596.596Z" fill="url(#paint14_linear)"/>
<path opacity="0.25" d="M1412.87 473.967C1301 379.224 1142.66 346.333 996.12 401.748C849.222 456.806 751.647 585.871 729.844 730.666C841.716 825.409 1000.05 858.3 1146.95 803.242C1293.49 747.827 1390.71 618.762 1412.87 473.967Z" fill="url(#paint15_linear)"/>
<path opacity="0.25" d="M1357.83 359.203C1231.3 285.554 1069.75 280.549 934.644 360.275C799.541 440.002 725.913 584.082 729.844 730.665C856.37 804.314 1017.92 809.319 1153.03 729.593C1287.77 649.866 1361.4 505.786 1357.83 359.203Z" fill="url(#paint16_linear)"/>
<path opacity="0.25" d="M1283.84 255.88C1146.59 205.112 986.469 228.351 867.45 330.602C748.43 432.852 700.894 587.3 729.844 731.023C867.092 781.791 1027.21 758.552 1146.23 656.302C1265.25 554.051 1312.79 399.603 1283.84 255.88Z" fill="url(#paint17_linear)"/>
<path opacity="0.25" d="M1192.7 166.858C1048.66 140.759 894.971 191.527 795.609 312.726C695.89 433.925 676.232 594.451 729.487 730.666C873.526 756.765 1027.22 705.997 1126.93 584.798C1226.65 463.599 1246.31 303.073 1192.7 166.858Z" fill="url(#paint18_linear)"/>
</g>
</g>
<defs>
<linearGradient id="paint0_linear" x1="668.218" y1="94.9911" x2="1153.94" y2="98.3894" gradientUnits="userSpaceOnUse">
<stop stop-color="#9BEFD7"/>
<stop offset="0.473958" stop-color="#8BF7AB"/>
<stop offset="1" stop-color="#FFD465"/>
</linearGradient>
<linearGradient id="paint1_linear" x1="624.813" y1="42.4415" x2="1081.01" y2="45.2118" gradientUnits="userSpaceOnUse">
<stop stop-color="#9BEFD7"/>
<stop offset="0.473958" stop-color="#8BF7AB"/>
<stop offset="1" stop-color="#FFD465"/>
</linearGradient>
<linearGradient id="paint2_linear" x1="571.884" y1="10.6214" x2="1010.49" y2="13.069" gradientUnits="userSpaceOnUse">
<stop stop-color="#9BEFD7"/>
<stop offset="0.473958" stop-color="#8BF7AB"/>
<stop offset="1" stop-color="#FFD465"/>
</linearGradient>
<linearGradient id="paint3_linear" x1="511.435" y1="0.968994" x2="943.983" y2="3.31795" gradientUnits="userSpaceOnUse">
<stop stop-color="#9BEFD7"/>
<stop offset="0.473958" stop-color="#8BF7AB"/>
<stop offset="1" stop-color="#FFD465"/>
</linearGradient>
<linearGradient id="paint4_linear" x1="444.546" y1="13.4825" x2="884.413" y2="15.954" gradientUnits="userSpaceOnUse">
<stop stop-color="#9BEFD7"/>
<stop offset="0.473958" stop-color="#8BF7AB"/>
<stop offset="1" stop-color="#FFD465"/>
</linearGradient>
<linearGradient id="paint5_linear" x1="373.602" y1="47.4469" x2="832.938" y2="50.2775" gradientUnits="userSpaceOnUse">
<stop stop-color="#9BEFD7"/>
<stop offset="0.473958" stop-color="#8BF7AB"/>
<stop offset="1" stop-color="#FFD465"/>
</linearGradient>
<linearGradient id="paint6_linear" x1="301.159" y1="102.38" x2="790.922" y2="105.876" gradientUnits="userSpaceOnUse">
<stop stop-color="#9BEFD7"/>
<stop offset="0.473958" stop-color="#8BF7AB"/>
<stop offset="1" stop-color="#FFD465"/>
</linearGradient>
<linearGradient id="paint7_linear" x1="228.924" y1="168.256" x2="760.59" y2="172.794" gradientUnits="userSpaceOnUse">
<stop stop-color="#9BEFD7"/>
<stop offset="0.473958" stop-color="#8BF7AB"/>
<stop offset="1" stop-color="#FFD465"/>
</linearGradient>
<linearGradient id="paint8_linear" x1="159.165" y1="238.478" x2="741.797" y2="244.447" gradientUnits="userSpaceOnUse">
<stop stop-color="#9BEFD7"/>
<stop offset="0.473958" stop-color="#8BF7AB"/>
<stop offset="1" stop-color="#FFD465"/>
</linearGradient>
<linearGradient id="paint9_linear" x1="93.9956" y1="310.878" x2="735.633" y2="318.71" gradientUnits="userSpaceOnUse">
<stop stop-color="#9BEFD7"/>
<stop offset="0.473958" stop-color="#8BF7AB"/>
<stop offset="1" stop-color="#FFD465"/>
</linearGradient>
<linearGradient id="paint10_linear" x1="41.4597" y1="383.446" x2="735.71" y2="393.211" gradientUnits="userSpaceOnUse">
<stop stop-color="#9BEFD7"/>
<stop offset="0.473958" stop-color="#8BF7AB"/>
<stop offset="1" stop-color="#FFD465"/>
</linearGradient>
<linearGradient id="paint11_linear" x1="9.65039" y1="453.721" x2="735.972" y2="464.844" gradientUnits="userSpaceOnUse">
<stop stop-color="#9BEFD7"/>
<stop offset="0.473958" stop-color="#8BF7AB"/>
<stop offset="1" stop-color="#FFD465"/>
</linearGradient>
<linearGradient id="paint12_linear" x1="0" y1="520.059" x2="736.41" y2="531.65" gradientUnits="userSpaceOnUse">
<stop stop-color="#9BEFD7"/>
<stop offset="0.473958" stop-color="#8BF7AB"/>
<stop offset="1" stop-color="#FFD465"/>
</linearGradient>
<linearGradient id="paint13_linear" x1="729.487" y1="512.551" x2="1465.9" y2="524.142" gradientUnits="userSpaceOnUse">
<stop stop-color="#9BEFD7"/>
<stop offset="0.473958" stop-color="#8BF7AB"/>
<stop offset="1" stop-color="#FFD465"/>
</linearGradient>
<linearGradient id="paint14_linear" x1="729.844" y1="445.643" x2="1453.28" y2="456.642" gradientUnits="userSpaceOnUse">
<stop stop-color="#9BEFD7"/>
<stop offset="0.473958" stop-color="#8BF7AB"/>
<stop offset="1" stop-color="#FFD465"/>
</linearGradient>
<linearGradient id="paint15_linear" x1="729.844" y1="374.786" x2="1419.05" y2="384.348" gradientUnits="userSpaceOnUse">
<stop stop-color="#9BEFD7"/>
<stop offset="0.473958" stop-color="#8BF7AB"/>
<stop offset="1" stop-color="#FFD465"/>
</linearGradient>
<linearGradient id="paint16_linear" x1="729.695" y1="302.214" x2="1363.67" y2="309.8" gradientUnits="userSpaceOnUse">
<stop stop-color="#9BEFD7"/>
<stop offset="0.473958" stop-color="#8BF7AB"/>
<stop offset="1" stop-color="#FFD465"/>
</linearGradient>
<linearGradient id="paint17_linear" x1="721.592" y1="229.959" x2="1297.31" y2="235.721" gradientUnits="userSpaceOnUse">
<stop stop-color="#9BEFD7"/>
<stop offset="0.473958" stop-color="#8BF7AB"/>
<stop offset="1" stop-color="#FFD465"/>
</linearGradient>
<linearGradient id="paint18_linear" x1="700.654" y1="160.18" x2="1226.58" y2="164.571" gradientUnits="userSpaceOnUse">
<stop stop-color="#9BEFD7"/>
<stop offset="0.473958" stop-color="#8BF7AB"/>
<stop offset="1" stop-color="#FFD465"/>
</linearGradient>
</defs>
</svg>
